Coordinates
version=1
nRows=16
nColumns=63
inDegrees=yes

Units are S.I. units (second, meters, Newtons, ...)
If the header above contains a line with 'inDegrees', this indicates whether rotational values are in degrees (yes) or radians (no).

endheader
time	pelvis_tilt	pelvis_list	pelvis_rotation	pelvis_tx	pelvis_ty	pelvis_tz	hip_flexion_r	hip_adduction_r	hip_rotation_r	knee_angle_r	knee_angle_r_beta	ankle_angle_r	subtalar_angle_r	mtp_angle_r	hip_flexion_l	hip_adduction_l	hip_rotation_l	knee_angle_l	knee_angle_l_beta	ankle_angle_l	subtalar_angle_l	mtp_angle_l	L5_S1_Flex_Ext	L5_S1_Lat_Bending	L5_S1_axial_rotation	L4_L5_Flex_Ext	L4_L5_Lat_Bending	L4_L5_axial_rotation	L3_L4_Flex_Ext	L3_L4_Lat_Bending	L3_L4_axial_rotation	L2_L3_Flex_Ext	L2_L3_Lat_Bending	L2_L3_axial_rotation	L1_L2_Flex_Ext	L1_L2_Lat_Bending	L1_L2_axial_rotation	L1_T12_Flex_Ext	L1_T12_Lat_Bending	L1_T12_axial_rotation	Abs_r3	Abs_r2	Abs_r1	Abs_t1	Abs_t2	neck_flexion	neck_bending	neck_rotation	arm_flex_r	arm_add_r	arm_rot_r	elbow_flex_r	pro_sup_r	wrist_flex_r	wrist_dev_r	arm_flex_l	arm_add_l	arm_rot_l	elbow_flex_l	pro_sup_l	wrist_flex_l	wrist_dev_l
0.000000	-1.896801	-4.956648	90.163066	-0.007498	0.921954	0.590097	6.702461	-1.836381	-10.076386	10.549904	0.184131	33.751645	12.963227	0.000000	7.685198	0.312866	-1.910240	10.354335	0.180717	31.816759	-1.516050	0.000000	0.148090	-0.132036	1.921880	0.275018	-0.175608	2.041998	0.243297	-0.321032	2.041998	0.169252	-0.321032	1.681645	0.137516	-0.269248	1.561528	0.084619	-0.204524	1.441410	1.057791	-1.493618	10.688921	0.000000	0.000000	25.631857	-6.762070	-18.108751	14.721126	-2.554881	57.890477	29.561270	65.806706	2.763434	13.608909	31.446794	3.732385	73.342305	37.811338	88.889687	-13.328148	-5.765055
0.019608	-1.545631	-4.667725	88.987390	-0.007590	0.921743	0.588799	6.412096	-1.517666	-9.729776	10.641807	0.185735	33.897436	14.001366	0.000000	6.882469	0.036824	-1.837353	9.931413	0.173336	32.006346	-2.349339	0.000000	0.116565	-0.052377	1.959412	0.216472	-0.069662	2.081876	0.191504	-0.127350	2.081876	0.133222	-0.127350	1.714486	0.108242	-0.106807	1.592023	0.066605	-0.081132	1.469559	0.832609	-0.592501	10.897664	0.000000	0.000000	25.779966	-7.086617	-16.821931	14.988256	-3.752354	44.809842	31.587227	74.556736	2.761729	12.091955	30.281440	4.184117	71.735241	37.293187	80.770845	-14.001526	-5.641215
0.039216	-1.291167	-4.424916	87.968649	-0.007470	0.921584	0.587585	6.150564	-1.273374	-9.312877	10.676511	0.186340	34.041501	14.784192	0.000000	6.183197	-0.163702	-1.836056	9.531062	0.166348	32.184383	-3.003289	0.000000	0.091423	0.006812	2.000570	0.169782	0.009060	2.125605	0.150199	0.016562	2.125605	0.104488	0.016562	1.750499	0.084896	0.013891	1.625463	0.052239	0.010552	1.500427	0.653028	0.077058	11.126569	0.000000	0.000000	25.905293	-7.323173	-15.805910	15.283682	-4.529144	36.803982	32.669659	80.951025	2.309869	10.599687	29.192968	4.529081	70.384926	36.801480	74.207428	-14.328586	-5.367458
0.058824	-1.123563	-4.225750	87.096920	-0.007166	0.921473	0.586455	5.917565	-1.096270	-8.839815	10.660597	0.186063	34.182448	15.337369	0.000000	5.581626	-0.296488	-1.893969	9.152720	0.159745	32.349994	-3.497107	0.000000	0.072192	0.047619	2.043869	0.134067	0.063334	2.171611	0.118604	0.115782	2.171611	0.082508	0.115782	1.788385	0.067037	0.097105	1.660643	0.041250	0.073762	1.532902	0.515657	0.538679	11.367386	0.000000	0.000000	26.010763	-7.480727	-15.031079	15.603840	-4.924760	33.382877	32.903688	85.202494	1.462226	9.140584	28.180032	4.775176	69.268490	36.339963	69.055129	-14.350250	-4.963217
0.078431	-1.032970	-4.067752	86.362281	-0.006705	0.921403	0.585409	5.712801	-0.979123	-8.324714	10.600645	0.185016	34.318884	15.686557	0.000000	5.072001	-0.369306	-1.998711	8.795827	0.153516	32.502302	-3.850002	0.000000	0.058395	0.072133	2.087826	0.108445	0.095937	2.218315	0.095937	0.175385	2.218315	0.066739	0.175385	1.826847	0.054225	0.147094	1.696358	0.033367	0.111734	1.565869	0.417107	0.815986	11.611860	0.000000	0.000000	26.099300	-7.568266	-14.467835	15.945167	-4.978713	34.056506	32.384438	87.524062	0.273172	7.723122	27.241285	4.930301	68.363066	35.912383	65.169640	-14.107442	-4.447924
0.098039	-1.009543	-3.948449	85.754808	-0.006114	0.921371	0.584447	5.535972	-0.914697	-7.781696	10.503238	0.183316	34.449420	15.857420	0.000000	4.648565	-0.389931	-2.137900	8.459821	0.147652	32.640429	-4.081182	0.000000	0.049558	0.082442	2.130956	0.092034	0.109648	2.264141	0.081419	0.200450	2.264141	0.056640	0.200450	1.864587	0.046020	0.168116	1.731402	0.028317	0.127703	1.598217	0.353989	0.932602	11.851738	0.000000	0.000000	26.173831	-7.594777	-14.086571	16.304098	-4.730514	38.334850	31.207031	88.128649	-1.202922	6.355777	26.375383	5.002356	67.645785	35.522487	62.406655	-13.641083	-3.841012
0.117647	-1.043433	-3.865368	85.264580	-0.005419	0.921372	0.583570	5.386780	-0.895759	-7.224887	10.374954	0.181077	34.572662	15.875619	0.000000	4.305563	-0.366136	-2.299157	8.144142	0.142142	32.763499	-4.209855	0.000000	0.045207	0.080634	2.171776	0.083955	0.107243	2.307512	0.074271	0.196054	2.307512	0.051667	0.196054	1.900304	0.041980	0.164429	1.764568	0.025831	0.124902	1.628832	0.322911	0.912148	12.078769	0.000000	0.000000	26.237279	-7.569249	-13.857682	16.677069	-4.219672	45.727889	29.466589	87.229175	-2.911684	5.047029	25.580979	4.999240	67.093778	35.174021	60.621867	-12.992097	-3.161913
0.137255	-1.124794	-3.816036	84.881672	-0.004650	0.921401	0.582777	5.264926	-0.915076	-6.668411	10.222375	0.178414	34.687219	15.766816	0.000000	4.037240	-0.305696	-2.470099	7.848229	0.136977	32.870634	-4.255229	0.000000	0.044868	0.068797	2.208803	0.083324	0.091500	2.346853	0.073713	0.167274	2.346853	0.051279	0.167274	1.932702	0.041664	0.140291	1.794652	0.025637	0.106567	1.656602	0.320486	0.778249	12.284698	0.000000	0.000000	26.292572	-7.500668	-13.751562	17.060516	-3.485698	55.745603	27.258234	85.038560	-4.798742	3.805352	24.856728	4.928853	66.684177	34.870734	59.670969	-12.201406	-2.430059
0.156863	-1.243777	-3.797979	84.596163	-0.003831	0.921454	0.582068	5.170110	-0.965413	-6.126391	10.052082	0.175442	34.791700	15.556674	0.000000	3.837839	-0.216383	-2.638348	7.571521	0.132148	32.960957	-4.236511	0.000000	0.048065	0.049020	2.240551	0.089261	0.065197	2.380586	0.078966	0.119187	2.380586	0.054933	0.119187	1.960482	0.044633	0.099962	1.820448	0.027464	0.075932	1.680413	0.343323	0.554525	12.461273	0.000000	0.000000	26.342634	-7.398023	-13.738605	17.450876	-2.568103	67.897972	24.677089	81.769724	-6.809725	2.639224	24.201284	4.799095	66.394114	34.616371	59.409654	-11.309933	-1.664882
0.176471	-1.390536	-3.808725	84.398130	-0.002990	0.921525	0.581445	5.102035	-1.039538	-5.612952	9.870655	0.172275	34.884713	15.270856	0.000000	3.701605	-0.105973	-2.791520	7.313457	0.127644	33.033592	-4.172911	0.000000	0.054324	0.023391	2.265538	0.100885	0.031110	2.407134	0.089249	0.056872	2.407134	0.062087	0.056872	1.982345	0.050445	0.047698	1.840749	0.031041	0.036232	1.699153	0.388032	0.264601	12.600241	0.000000	0.000000	26.390389	-7.270300	-13.789206	17.844584	-1.506396	81.694975	21.818277	77.635587	-8.890261	1.557123	23.613301	4.617864	66.200721	34.414680	59.693615	-10.358600	-0.885814
0.196078	-1.555224	-3.845798	84.277650	-0.002155	0.921611	0.580906	5.060400	-1.130217	-5.142217	9.684674	0.169029	34.964867	14.935022	0.000000	3.622783	0.017761	-2.917236	7.073476	0.123455	33.087661	-4.083635	0.000000	0.063171	-0.006003	2.282279	0.117315	-0.007983	2.424921	0.103784	-0.014595	2.424921	0.072198	-0.014595	1.996994	0.058661	-0.012240	1.854351	0.036096	-0.009298	1.711709	0.451224	-0.067902	12.693349	0.000000	0.000000	26.438764	-7.126488	-13.873759	18.238075	-0.340089	96.646594	18.776919	72.849070	-10.985978	0.567526	23.091434	4.393061	66.081130	34.269407	60.378546	-9.388331	-0.112288
0.215686	-1.751382	-3.927260	84.221572	-0.001349	0.921615	0.580423	5.067300	-1.258409	-4.783818	9.563060	0.166907	34.990422	14.568478	0.000000	3.612700	0.167400	-3.020695	6.862935	0.119781	33.107256	-3.956254	0.000000	0.076017	-0.039897	2.275204	0.141170	-0.053063	2.417405	0.124888	-0.097005	2.417405	0.086879	-0.097005	1.990804	0.070589	-0.081357	1.848604	0.043436	-0.061800	1.706403	0.542979	-0.451320	12.654004	0.000000	0.000000	26.523372	-6.948105	-13.900981	18.613576	0.816542	110.642992	15.958484	68.718225	-12.862616	-0.254898	22.858789	4.138874	66.289705	34.077510	60.945529	-8.904310	0.212641
0.235294	-1.915191	-4.028140	84.201330	-0.000664	0.921675	0.580000	5.099096	-1.359876	-4.499118	9.416391	0.164347	35.023523	14.273893	0.000000	3.630146	0.293714	-2.935581	6.623658	0.115605	33.097136	-4.016781	0.000000	0.090393	-0.066843	2.261985	0.167869	-0.088901	2.403359	0.148506	-0.162522	2.403359	0.103310	-0.162522	1.979237	0.083939	-0.136306	1.837863	0.051650	-0.103540	1.696489	0.645667	-0.756140	12.580482	0.000000	0.000000	26.614708	-6.825909	-13.849860	18.956399	1.981070	124.886421	13.156995	64.272679	-14.678651	-0.855644	22.462670	3.833700	66.100031	34.102020	61.846403	-8.158611	0.863624
0.254902	-2.043508	-4.132533	84.210765	-0.000112	0.921803	0.579655	5.140284	-1.433244	-4.292251	9.255251	0.161535	35.053767	14.051605	0.000000	3.661386	0.393989	-2.704972	6.372531	0.111222	33.061747	-4.221381	0.000000	0.104069	-0.086505	2.241418	0.193267	-0.115052	2.381507	0.170975	-0.210329	2.381507	0.118941	-0.210329	1.961241	0.096639	-0.176402	1.821152	0.059465	-0.133997	1.681063	0.743356	-0.978565	12.466094	0.000000	0.000000	26.704480	-6.754843	-13.720948	19.300014	3.113534	139.076772	10.424527	59.511427	-16.385956	-1.325955	22.014194	3.516511	65.846860	34.252773	62.298891	-7.399660	1.673108
0.274510	-2.138676	-4.238601	84.247028	0.000326	0.921976	0.579435	5.192998	-1.479463	-4.153500	9.095892	0.158753	35.071083	13.874635	0.000000	3.716119	0.461335	-2.466985	6.143714	0.107228	33.029662	-4.400289	0.000000	0.116506	-0.099679	2.210009	0.216363	-0.132573	2.348134	0.191407	-0.242359	2.348134	0.133154	-0.242359	1.933758	0.108187	-0.203265	1.795632	0.066571	-0.154403	1.657506	0.832188	-1.127588	12.291405	0.000000	0.000000	26.791881	-6.697422	-13.479290	19.661143	4.199141	152.831039	7.823674	54.741505	-17.932918	-1.745516	21.599914	3.188093	65.627321	34.487233	62.191653	-6.669821	2.451486
0.294118	-2.198814	-4.347524	84.316203	0.000631	0.922152	0.579359	5.268326	-1.507009	-4.160278	8.976342	0.156667	35.086854	13.819671	0.000000	3.799096	0.498433	-2.175799	5.951555	0.103874	32.978185	-4.620296	0.000000	0.127814	-0.106700	2.164500	0.237364	-0.141912	2.299781	0.209986	-0.259432	2.299781	0.146079	-0.259432	1.893938	0.118688	-0.217584	1.758656	0.073033	-0.165279	1.623375	0.912965	-1.207017	12.038300	0.000000	0.000000	26.873299	-6.654854	-13.163472	20.040936	5.204238	165.743880	5.424197	49.859395	-19.170630	-2.228052	21.278090	2.864956	65.424861	34.775207	62.014819	-6.122701	3.077616
